<svg xmlns="http://www.w3.org/2000/svg" viewBox="0 0 560 220" width="560" height="220">
  <style>@import url('https://fonts.googleapis.com/css2?family=Roboto+Condensed:wght@900&amp;family=Roboto:wght@300&amp;display=swap');</style>
  <!-- Mat background -->
  <rect width="560" height="220" fill="#1a2438"/>
  <!-- Fine grid -->
  <g stroke="#212e48" stroke-width="0.4">
    <line x1="0" y1="10" x2="560" y2="10"/><line x1="0" y1="20" x2="560" y2="20"/><line x1="0" y1="30" x2="560" y2="30"/><line x1="0" y1="40" x2="560" y2="40"/><line x1="0" y1="50" x2="560" y2="50"/><line x1="0" y1="60" x2="560" y2="60"/><line x1="0" y1="70" x2="560" y2="70"/><line x1="0" y1="80" x2="560" y2="80"/><line x1="0" y1="90" x2="560" y2="90"/><line x1="0" y1="100" x2="560" y2="100"/><line x1="0" y1="110" x2="560" y2="110"/><line x1="0" y1="120" x2="560" y2="120"/><line x1="0" y1="130" x2="560" y2="130"/><line x1="0" y1="140" x2="560" y2="140"/><line x1="0" y1="150" x2="560" y2="150"/><line x1="0" y1="160" x2="560" y2="160"/><line x1="0" y1="170" x2="560" y2="170"/><line x1="0" y1="180" x2="560" y2="180"/><line x1="0" y1="190" x2="560" y2="190"/><line x1="0" y1="200" x2="560" y2="200"/><line x1="0" y1="210" x2="560" y2="210"/>
    <line x1="10" y1="0" x2="10" y2="220"/><line x1="20" y1="0" x2="20" y2="220"/><line x1="30" y1="0" x2="30" y2="220"/><line x1="40" y1="0" x2="40" y2="220"/><line x1="50" y1="0" x2="50" y2="220"/><line x1="60" y1="0" x2="60" y2="220"/><line x1="70" y1="0" x2="70" y2="220"/><line x1="80" y1="0" x2="80" y2="220"/><line x1="90" y1="0" x2="90" y2="220"/><line x1="100" y1="0" x2="100" y2="220"/><line x1="110" y1="0" x2="110" y2="220"/><line x1="120" y1="0" x2="120" y2="220"/><line x1="130" y1="0" x2="130" y2="220"/><line x1="140" y1="0" x2="140" y2="220"/><line x1="150" y1="0" x2="150" y2="220"/><line x1="160" y1="0" x2="160" y2="220"/><line x1="170" y1="0" x2="170" y2="220"/><line x1="180" y1="0" x2="180" y2="220"/><line x1="190" y1="0" x2="190" y2="220"/><line x1="200" y1="0" x2="200" y2="220"/><line x1="210" y1="0" x2="210" y2="220"/><line x1="220" y1="0" x2="220" y2="220"/><line x1="230" y1="0" x2="230" y2="220"/><line x1="240" y1="0" x2="240" y2="220"/><line x1="250" y1="0" x2="250" y2="220"/><line x1="260" y1="0" x2="260" y2="220"/><line x1="270" y1="0" x2="270" y2="220"/><line x1="280" y1="0" x2="280" y2="220"/><line x1="290" y1="0" x2="290" y2="220"/><line x1="300" y1="0" x2="300" y2="220"/><line x1="310" y1="0" x2="310" y2="220"/><line x1="320" y1="0" x2="320" y2="220"/><line x1="330" y1="0" x2="330" y2="220"/><line x1="340" y1="0" x2="340" y2="220"/><line x1="350" y1="0" x2="350" y2="220"/><line x1="360" y1="0" x2="360" y2="220"/><line x1="370" y1="0" x2="370" y2="220"/><line x1="380" y1="0" x2="380" y2="220"/><line x1="390" y1="0" x2="390" y2="220"/><line x1="400" y1="0" x2="400" y2="220"/><line x1="410" y1="0" x2="410" y2="220"/><line x1="420" y1="0" x2="420" y2="220"/><line x1="430" y1="0" x2="430" y2="220"/><line x1="440" y1="0" x2="440" y2="220"/><line x1="450" y1="0" x2="450" y2="220"/><line x1="460" y1="0" x2="460" y2="220"/><line x1="470" y1="0" x2="470" y2="220"/><line x1="480" y1="0" x2="480" y2="220"/><line x1="490" y1="0" x2="490" y2="220"/><line x1="500" y1="0" x2="500" y2="220"/><line x1="510" y1="0" x2="510" y2="220"/><line x1="520" y1="0" x2="520" y2="220"/><line x1="530" y1="0" x2="530" y2="220"/><line x1="540" y1="0" x2="540" y2="220"/><line x1="550" y1="0" x2="550" y2="220"/>
  </g>
  <!-- Bold 50px grid lines -->
  <g stroke="#2a3a58" stroke-width="1">
    <line x1="0" y1="50" x2="560" y2="50"/><line x1="0" y1="100" x2="560" y2="100"/><line x1="0" y1="150" x2="560" y2="150"/><line x1="0" y1="200" x2="560" y2="200"/>
    <line x1="50" y1="0" x2="50" y2="220"/><line x1="100" y1="0" x2="100" y2="220"/><line x1="150" y1="0" x2="150" y2="220"/><line x1="200" y1="0" x2="200" y2="220"/><line x1="250" y1="0" x2="250" y2="220"/><line x1="300" y1="0" x2="300" y2="220"/><line x1="350" y1="0" x2="350" y2="220"/><line x1="400" y1="0" x2="400" y2="220"/><line x1="450" y1="0" x2="450" y2="220"/><line x1="500" y1="0" x2="500" y2="220"/><line x1="550" y1="0" x2="550" y2="220"/>
  </g>
  <!-- Panel -->
  <rect x="40" y="18" width="480" height="160" rx="2" fill="#f0e8d0" stroke="#d8d0b8" stroke-width="1"/>
  <rect x="40" y="18" width="480" height="9" rx="2" fill="#d8d0b8"/>
  <rect x="40" y="169" width="480" height="9" rx="2" fill="#d8d0b8"/>
  <!-- Panel dividers -->
  <g stroke="#c8c0a8" stroke-width="0.6">
    <line x1="136" y1="27" x2="136" y2="169"/><line x1="232" y1="27" x2="232" y2="169"/><line x1="328" y1="27" x2="328" y2="169"/><line x1="424" y1="27" x2="424" y2="169"/>
  </g>
  <!-- Top jacks -->
  <g fill="none" stroke="#1a2438" stroke-width="1.3">
    <circle cx="88"  cy="48" r="9"/><circle cx="184" cy="48" r="9"/><circle cx="280" cy="48" r="9"/><circle cx="376" cy="48" r="9"/><circle cx="472" cy="48" r="9"/>
  </g>
  <g fill="#1a2438">
    <circle cx="88"  cy="48" r="3.5"/><circle cx="184" cy="48" r="3.5"/><circle cx="280" cy="48" r="3.5"/><circle cx="376" cy="48" r="3.5"/><circle cx="472" cy="48" r="3.5"/>
  </g>
  <!-- Patch cables top -->
  <path d="M88 48 C88 29 184 29 184 48" fill="none" stroke="#1a2438" stroke-width="2"/>
  <path d="M280 48 C280 27 376 27 376 48" fill="none" stroke="#1a2438" stroke-width="2"/>
  <path d="M88 48 C88 22 472 22 472 48" fill="none" stroke="#1a2438" stroke-width="1.3" stroke-dasharray="5 3.5" opacity="0.45"/>
  <!-- Bottom jacks -->
  <g fill="none" stroke="#1a2438" stroke-width="1.1">
    <circle cx="88"  cy="152" r="7"/><circle cx="184" cy="152" r="7"/><circle cx="280" cy="152" r="7"/><circle cx="376" cy="152" r="7"/><circle cx="472" cy="152" r="7"/>
  </g>
  <!-- Patch cables bottom -->
  <path d="M184 152 C184 170 280 170 280 152" fill="none" stroke="#1a2438" stroke-width="2"/>
  <path d="M376 152 C376 172 472 172 472 152" fill="none" stroke="#1a2438" stroke-width="2"/>
  <!-- Letters -->
  <text font-family="'Roboto Condensed', 'Roboto', sans-serif" font-weight="900" font-size="72" fill="#1a2438" x="88"  y="103" text-anchor="middle" dominant-baseline="central">C</text>
  <text font-family="'Roboto Condensed', 'Roboto', sans-serif" font-weight="900" font-size="72" fill="#1a2438" x="184" y="103" text-anchor="middle" dominant-baseline="central">A</text>
  <text font-family="'Roboto Condensed', 'Roboto', sans-serif" font-weight="900" font-size="72" fill="#1a2438" x="280" y="103" text-anchor="middle" dominant-baseline="central">S</text>
  <text font-family="'Roboto Condensed', 'Roboto', sans-serif" font-weight="900" font-size="72" fill="#1a2438" x="376" y="103" text-anchor="middle" dominant-baseline="central">P</text>
  <text font-family="'Roboto Condensed', 'Roboto', sans-serif" font-weight="900" font-size="72" fill="#1a2438" x="472" y="103" text-anchor="middle" dominant-baseline="central">I</text>
  <!-- Tagline -->
  <text font-family="'Roboto', sans-serif" font-weight="300" font-size="11" fill="#ffffff" opacity="0.55" x="520" y="197" text-anchor="end" letter-spacing="2.5">AUDIO SYNTHESIS ENGINE</text>
</svg>