<svg xmlns="http://www.w3.org/2000/svg" viewBox="0 0 200 64" width="200" height="64">
    <style>@import url('https://fonts.googleapis.com/css2?family=Roboto+Condensed:wght@900&amp;family=Roboto:wght@300&amp;display=swap');</style>
    <rect width="200" height="64" rx="32" fill="#1a2438"/>
    <g stroke="#212e48" stroke-width="0.4">
        <line x1="0" y1="8" x2="200" y2="8"/><line x1="0" y1="16" x2="200" y2="16"/><line x1="0" y1="24" x2="200" y2="24"/><line x1="0" y1="32" x2="200" y2="32"/><line x1="0" y1="40" x2="200" y2="40"/><line x1="0" y1="48" x2="200" y2="48"/><line x1="0" y1="56" x2="200" y2="56"/>
        <line x1="8" y1="0" x2="8" y2="64"/><line x1="16" y1="0" x2="16" y2="64"/><line x1="24" y1="0" x2="24" y2="64"/><line x1="32" y1="0" x2="32" y2="64"/><line x1="40" y1="0" x2="40" y2="64"/><line x1="48" y1="0" x2="48" y2="64"/><line x1="56" y1="0" x2="56" y2="64"/><line x1="64" y1="0" x2="64" y2="64"/><line x1="72" y1="0" x2="72" y2="64"/><line x1="80" y1="0" x2="80" y2="64"/><line x1="88" y1="0" x2="88" y2="64"/><line x1="96" y1="0" x2="96" y2="64"/><line x1="104" y1="0" x2="104" y2="64"/><line x1="112" y1="0" x2="112" y2="64"/><line x1="120" y1="0" x2="120" y2="64"/><line x1="128" y1="0" x2="128" y2="64"/><line x1="136" y1="0" x2="136" y2="64"/><line x1="144" y1="0" x2="144" y2="64"/><line x1="152" y1="0" x2="152" y2="64"/><line x1="160" y1="0" x2="160" y2="64"/><line x1="168" y1="0" x2="168" y2="64"/><line x1="176" y1="0" x2="176" y2="64"/><line x1="184" y1="0" x2="184" y2="64"/><line x1="192" y1="0" x2="192" y2="64"/>
    </g>
    <g stroke="#2a3a58" stroke-width="0.8">
        <line x1="0" y1="32" x2="200" y2="32"/><line x1="40" y1="0" x2="40" y2="64"/><line x1="80" y1="0" x2="80" y2="64"/><line x1="120" y1="0" x2="120" y2="64"/><line x1="160" y1="0" x2="160" y2="64"/>
    </g>
    <rect x="6" y="8" width="50" height="48" rx="2" fill="#f0e8d0" stroke="#d8d0b8" stroke-width="0.8"/>
    <rect x="6" y="8" width="50" height="5" rx="2" fill="#d8d0b8"/>
    <rect x="6" y="51" width="50" height="5" rx="2" fill="#d8d0b8"/>
    <circle cx="31" cy="22" r="5" fill="none" stroke="#1a2438" stroke-width="1"/>
    <circle cx="31" cy="22" r="2" fill="#1a2438"/>
    <circle cx="31" cy="43" r="4" fill="none" stroke="#1a2438" stroke-width="0.9"/>
    <path d="M31 22 C31 12 31 12 31 22" fill="none" stroke="#1a2438" stroke-width="1.4"/>
    <text font-family="'Roboto Condensed', 'Roboto', sans-serif" font-weight="900" font-size="22" fill="#1a2438" x="31" y="34" text-anchor="middle" dominant-baseline="central">C</text>
    <text font-family="'Roboto Condensed', 'Roboto', sans-serif" font-weight="900" font-size="18" fill="#f0e8d0" x="116" y="32" text-anchor="middle" dominant-baseline="central" letter-spacing="6">CASPI</text>
    <text font-family="'Roboto', sans-serif" font-weight="300" font-size="8" fill="#f0e8d0" opacity="0.5" x="185" y="54" text-anchor="end" letter-spacing="1.5">SYNTHESIS</text>
</svg>