<svg xmlns="http://www.w3.org/2000/svg" viewBox="0 0 120 120" width="120" height="120">
  <style>@import url('https://fonts.googleapis.com/css2?family=Roboto+Condensed:wght@900&amp;display=swap');</style>
  <rect width="120" height="120" fill="#1a2438"/>
  <g stroke="#212e48" stroke-width="0.4">
    <line x1="0" y1="10" x2="120" y2="10"/><line x1="0" y1="20" x2="120" y2="20"/><line x1="0" y1="30" x2="120" y2="30"/><line x1="0" y1="40" x2="120" y2="40"/><line x1="0" y1="50" x2="120" y2="50"/><line x1="0" y1="60" x2="120" y2="60"/><line x1="0" y1="70" x2="120" y2="70"/><line x1="0" y1="80" x2="120" y2="80"/><line x1="0" y1="90" x2="120" y2="90"/><line x1="0" y1="100" x2="120" y2="100"/><line x1="0" y1="110" x2="120" y2="110"/>
    <line x1="10" y1="0" x2="10" y2="120"/><line x1="20" y1="0" x2="20" y2="120"/><line x1="30" y1="0" x2="30" y2="120"/><line x1="40" y1="0" x2="40" y2="120"/><line x1="50" y1="0" x2="50" y2="120"/><line x1="60" y1="0" x2="60" y2="120"/><line x1="70" y1="0" x2="70" y2="120"/><line x1="80" y1="0" x2="80" y2="120"/><line x1="90" y1="0" x2="90" y2="120"/><line x1="100" y1="0" x2="100" y2="120"/><line x1="110" y1="0" x2="110" y2="120"/>
  </g>
  <g stroke="#2a3a58" stroke-width="0.8">
    <line x1="0" y1="40" x2="120" y2="40"/><line x1="0" y1="80" x2="120" y2="80"/>
    <line x1="40" y1="0" x2="40" y2="120"/><line x1="80" y1="0" x2="80" y2="120"/>
  </g>
  <rect x="10" y="12" width="100" height="88" rx="2" fill="#f0e8d0" stroke="#d8d0b8" stroke-width="0.8"/>
  <rect x="10" y="12" width="100" height="7" rx="2" fill="#d8d0b8"/>
  <rect x="10" y="93" width="100" height="7" rx="2" fill="#d8d0b8"/>
  <circle cx="35" cy="34" r="7" fill="none" stroke="#1a2438" stroke-width="1.2"/>
  <circle cx="35" cy="34" r="2.5" fill="#1a2438"/>
  <circle cx="85" cy="34" r="7" fill="none" stroke="#1a2438" stroke-width="1.2"/>
  <circle cx="85" cy="34" r="2.5" fill="#1a2438"/>
  <path d="M35 34 C35 18 85 18 85 34" fill="none" stroke="#1a2438" stroke-width="1.8"/>
  <circle cx="35" cy="83" r="5" fill="none" stroke="#1a2438" stroke-width="1"/>
  <circle cx="85" cy="83" r="5" fill="none" stroke="#1a2438" stroke-width="1"/>
  <path d="M35 83 C35 97 85 97 85 83" fill="none" stroke="#1a2438" stroke-width="1.8"/>
  <text font-family="'Roboto Condensed', 'Roboto', sans-serif" font-weight="900" font-size="38" fill="#1a2438" x="60" y="62" text-anchor="middle" dominant-baseline="central">CS</text>
</svg>